General                          : ChattChitto RG - Movies [R2L]
===========
Complete name                    : Little Fockers 2010 720p BRRip H264 [ChattChitto RG]
Format                           : MPEG-4
Format profile                   : Base Media
Codec ID                         : isom
File size                        : 1.88 GiB
Duration                         : 1h 37mn
Overall bit rate                 : 2 760 Kbps
Encoded date                     : UTC 2011-03-24 12:35:34

Video
===========
ID                               : 1
Format                           : AVC
Format/Info                      : Advanced Video Codec
Format profile                   : High@L4.1
Format settings, CABAC           : Yes
Format settings, ReFrames        : 4 frames
Codec ID                         : avc1
Codec ID/Info                    : Advanced Video Coding
Duration                         : 1h 37mn
Bit rate mode                    : Variable
Bit rate                         : 2 400 Kbps
Maximum bit rate                 : 18.0 Mbps
Width                            : 1 280 pixels
Height                           : 688 pixels
Display aspect ratio             : 1.860
Frame rate mode                  : Constant
Frame rate                       : 23.976 fps
Color space                      : YUV
Chroma subsampling               : 4:2:0
Bit depth                        : 8 bits
Scan type                        : Progressive
Bits/(Pixel*Frame)               : 0.114
Stream size                      : 1.64 GiB (87%)
Writing library                  : x264 core 107 r1745 4785e8e
Encoded date                     : UTC 2011-03-25 11:57:53

Audio
===========
ID                               : 2
Format                           : AAC
Format/Info                      : Advanced Audio Codec
Format profile                   : LC
Codec ID                         : 40
Duration                         : 1h 37mn
Bit rate mode                    : Variable
Bit rate                         : 352.8 Kbps
Maximum bit rate                 : 495 Kbps
Channel(s)                       : 6 channels
Channel positions                : Front: L C R, Side: L R, LFE
Sampling rate                    : 48.0 KHz
Compression mode                 : Lossy
Stream size                      : 249 MiB (13%)
Encoded date                     : UTC 2011-03-24 12:36:05

Subtitles                        : English | French | Spanish


----------------------------------------------------
IMDB Link: http://www.imdb.com/title/tt0970866/
----------------------------------------------------



Screen Shots:
==============    
http://chattchitto.net/chattchittorg/movies/brrip/2011/little_fockers/1.png 
http://chattchitto.net/chattchittorg/movies/brrip/2011/little_fockers/2.png 
http://chattchitto.net/chattchittorg/movies/brrip/2011/little_fockers/3.png 
http://chattchitto.net/chattchittorg/movies/brrip/2011/little_fockers/4.png 
http://chattchitto.net/chattchittorg/movies/brrip/2011/little_fockers/5.png 
http://chattchitto.net/chattchittorg/movies/brrip/2011/little_fockers/6.png 
http://chattchitto.net/chattchittorg/movies/brrip/2011/little_fockers/7.png



ScreenShots Comparison:
=========================  
http://screenshotcomparison.com/comparison/38677



Plot:
======
Family-patriarch Jack Byrnes wants to appoint a successor. Does his son-in-law, the "male nurse", Greg Focker have what it takes?



Release Info:
==============
original name .... : Little Fockers 2010 720p BRRip H264 [ChattChitto RG]
ripper.............: TWiZTED
encoder............: Recalled2Life (R2L)
video codec........: H264/.MP4
video bitrate......: 2400
audio codec........: AAC-LC
aspect ratio.......: 1.860
resolution.........: 1280 x 688
genre..............: Comedy
runtime............: 1h 37mn
language...........: English
rating.............: PG-13
subtitles..........: English | French | Spanish
sample.............: Yes
2ch Audio..........: 2ch Audio for XBox Viewers
Compatibility .....: XBox | PS3 | WD Live



Source:
========
Little.Fockers.720p.BluRay.x264-TWiZTED  THANKS!!



Notes:
=======
ChattChitto RG Encourages Burning this Film with ConvertXtoDVD and Playing with VLC media player.
XBox 360 | PS3 | WD Live - Compatible 
Enhanced for your viewing pleasure ;)